<?xml version="1.0" encoding="utf-8"?>
<!-- Generator: Adobe Illustrator 24.3.0, SVG Export Plug-In . SVG Version: 6.00 Build 0)  -->
<svg version="1.1" id="Layer_1" xmlns="http://www.w3.org/2000/svg" xmlns:xlink="http://www.w3.org/1999/xlink" x="0px" y="0px"
	 viewBox="200 570 1100 380" style="enable-background:new 0 0 1500 1500;" xml:space="preserve">
<style type="text/css">
	.st0{fill:#FDFDFD;}
	.st1{fill:#5271FF;}
	.st2{fill:#FFFFFF;}
</style>
<g>
	<g>
		<g>
			<path class="st1" d="M636.7,742.22c-14-16.84-32.69-25.23-54.73-25.73c-2.15-0.05-4.3-0.06-6.45-0.11
				c-0.23,0-0.45-0.14-0.95-0.29c-13.65-50.48-59.77-81.08-105.87-80.85c-37.64,0.19-75.94,21.15-95.56,57.74
				c8.34,4.01,17.03,7.64,25.48,11.16c0.28-0.5,0.57-1,0.86-1.5c1.28-2.18,2.68-4.28,4.18-6.32c4.74-6.45,10.62-12.28,17.68-17.47
				c21.75-15.97,46.03-19.96,71.81-12.17c21.77,6.58,38.15,20.33,48.22,40.73c11,22.27,11.73,44.12,3.46,65.36
				c-1.35,3.47-2.94,6.93-4.77,10.37c-0.09,0.17-0.19,0.35-0.29,0.53c-1.18,2.2-2.45,4.38-3.83,6.56c3.29,0.48,7.29-0.08,11.47-1.59
				c3.21-1.18,6.53-2.91,9.72-5.19c13.32-9.5,20.02-22.73,20.93-39.32c1.41,0,2.57-0.06,3.73,0.01
				c17.79,0.95,31.38,9.03,39.72,24.76c8.42,15.89,7.59,31.96-2.18,47c-9.38,14.45-23.23,21.06-40.44,21.03
				c-41.74-0.07-83.49-0.01-125.23-0.01c-31.81,0-63.63,0.07-95.45-0.04c-24.86-0.09-44.15-17.87-46.64-42.69
				c-1.19-11.88,2.68-23.53,10-32.57c-4.08-9.46-6.97-19.47-8.66-29.99c-12.81,9.81-22.45,23.77-26.67,39.82
				c-7.57,28.79,2.7,59.33,25.91,77.4c13.42,10.44,28.62,15.78,45.54,15.8c74.16,0.09,148.31,0.29,222.46-0.09
				c30.89-0.15,54.18-14.59,67.31-42.52C660.8,793.65,656.7,766.31,636.7,742.22z"/>
			<g>
				<path class="st1" d="M515.65,748.2c-2.04-4.25-4.09-8.5-6.13-12.76c-0.42-0.87-0.84-1.75-1.31-2.74
					c10.81,3.54,30.01,31.62,31.17,45.55c-23.19-11.45-47.8-18.32-72.76-24.17c-4.81,23.74-28.75,30.23-42.16,24.13
					c3.54-2.87,5.4-6.47,4.76-11.04c-0.42-3-1.92-5.43-4.3-7.28c-4.19-3.26-12.12-3.95-17.09,4.11c-3.85-6.82-4.53-13.93-3.33-21.58
					c-4.63-0.7-9.15-1.39-13.68-2.06c-11.44-1.68-22.92-3.16-33.98-6.75c-7.12-2.31-13.83-5.4-19.54-10.37
					c-8.21-7.14-12.21-16.48-13.7-26.99c-0.68-4.86-0.81-9.79-0.93-14.78c6.58,17.28,19.41,27.57,36.33,33.45
					c-21.72-13.9-31.89-34.33-33.69-59.57c0.14,0.16,0.33,0.31,0.41,0.49c8.16,19.47,22.1,33.63,40.72,43.03
					c11,5.56,22.46,10.24,33.85,15c11.88,4.96,23.88,9.65,35.24,15.77c0.16,0.09,0.36,0.12,1.08,0.35
					c-7.67-8.78-16.28-15.81-24.64-23.18c14.69,3.06,28.63,8.25,42.09,14.78c13.43,6.51,26.11,14.29,38.49,22.67
					c-5.88-10.4-13.83-19.11-21.96-27.73c6.34,2.31,12.27,5.35,17.92,8.95c9.37,5.97,17.69,13.18,25.3,21.24
					c0.53,0.56,1.14,1.06,1.72,1.58c-0.02,0.19-0.04,0.38-0.06,0.57c0.14-0.14,0.28-0.29,0.43-0.43
					C515.81,748.37,515.73,748.28,515.65,748.2z"/>
				<path class="st1" d="M377.57,798.72c0.33,0.61,0.6,1.28,1.02,1.83c8.73,11.34,20.52,17.8,34.21,21.01
					c4.52,1.06,9.2,1.44,13.8,2.12c0.69,0.1,1.39,0.16,2.07,0.39c-7.04,1.59-14.14,1.96-21.27,1.28
					c-22.2-2.12-40.31-12.49-55.44-28.32c-18.2-19.05-29.16-41.71-32.61-67.91c-0.34-2.58-0.44-5.19-0.31-7.85
					c0.99,2.82,1.91,5.66,2.98,8.45c5.86,15.27,14.92,28.13,28.45,37.6c0.57,0.4,1.23,0.68,1.85,1.02c0.1,0.19,0.19,0.39,0.28,0.58
					c0.02-0.01,0.05-0.01,0.07-0.02c-0.04-0.01-0.08-0.01-0.12-0.02c-0.09-0.17-0.18-0.34-0.28-0.51c-1.42-1.61-2.84-3.22-4.26-4.82
					c-7.23-8.12-12.47-17.33-15.42-28.07c3.63,2.02,6.99,4.09,10.54,5.79c3.54,1.7,7.27,3.02,10.68,4.41
					c2.56,4.71,4.64,9.62,7.63,13.88c18.8,26.77,44.46,40.67,77.4,39.86c13.81-0.34,26.13-5.44,36.81-14.3
					c0.35-0.29,0.7-0.59,1.07-0.87c0.1-0.07,0.24-0.09,0.36-0.13c0.25,2.56-0.96,4.93-6.43,12.46c2.83-1.03,5.33-1.78,7.68-2.84
					c3.77-1.7,7.48-3.53,11.14-5.46c14.14-7.46,28.37-7.8,42.72-0.66c1.05,0.53,2.04,1.2,3.04,1.82c0.32,0.2,0.61,0.45,1.07,0.79
					c-2.98,0-5.76-0.23-8.49,0.05c-6.09,0.62-11.71,2.91-17.19,5.5c-7.54,3.56-14.9,7.55-22.56,10.82
					c-14.02,5.98-28.79,9.05-43.95,10.28c-12.92,1.04-25.75,0.55-38.35-2.77c-10.27-2.71-19.57-7.22-27.27-14.7
					c-0.27-0.26-0.62-0.44-0.94-0.66c-0.14-0.13-0.27-0.26-0.41-0.39c-0.05-0.08-0.09-0.15-0.08-0.14c-0.02-0.01,0.05,0.04,0.12,0.1
					C377.31,798.45,377.44,798.59,377.57,798.72z"/>
			</g>
		</g>
		<g>
			<g>
				<g>
					<path class="st1" d="M714.92,853.82v4.04c0,1.81-1.46,3.26-3.26,3.26h-14.81v-18.07h14.05c1.81,0,3.26,1.46,3.26,3.26V850
						c0,0.5-0.13,0.98-0.33,1.41C714.5,851.99,714.92,852.86,714.92,853.82z M700.12,845.76c-0.3,0-0.55,0.25-0.55,0.55V850
						c0,0.3,0.25,0.55,0.55,0.55h10.79c0.3,0,0.55-0.25,0.55-0.55v-3.69c0-0.3-0.25-0.55-0.55-0.55H700.12z M712.21,853.82
						c0-0.3-0.25-0.55-0.55-0.55h-11.54c-0.3,0-0.55,0.25-0.55,0.55v4.04c0,0.3,0.25,0.55,0.55,0.55h11.54
						c0.3,0,0.55-0.25,0.55-0.55V853.82z"/>
					<path class="st1" d="M736.78,845.76h-13.85v4.97h11.14v2.71h-11.14v4.97h13.85v2.71h-16.56v-18.07h16.56V845.76z"/>
					<path class="st1" d="M760.29,843.05l-8.33,11.29v6.78h-2.71v-6.78l-8.33-11.29h3.19l6.5,8.23l6.47-8.23H760.29z"/>
					<path class="st1" d="M779.39,843.05c1.81,0,3.26,1.46,3.26,3.26v11.54c0,1.81-1.45,3.26-3.26,3.26h-11.54
						c-1.81,0-3.26-1.46-3.26-3.26v-11.54c0-1.81,1.46-3.26,3.26-3.26H779.39z M779.39,858.41c0.3,0,0.55-0.25,0.55-0.55v-11.54
						c0-0.3-0.25-0.55-0.55-0.55h-11.54c-0.3,0-0.55,0.25-0.55,0.55v11.54c0,0.3,0.25,0.55,0.55,0.55H779.39z"/>
					<path class="st1" d="M803.28,843.05h2.71v18.07h-3.21l-12.15-14.45v14.45h-2.71v-18.07h3.21l12.15,14.45V843.05z"/>
					<path class="st1" d="M826.17,843.05c1.81,0,3.26,1.46,3.26,3.26v11.54c0,1.81-1.46,3.26-3.26,3.26h-14.81v-18.07H826.17z
						 M826.72,846.32c0-0.3-0.25-0.55-0.55-0.55h-11.54c-0.3,0-0.55,0.25-0.55,0.55v11.54c0,0.3,0.25,0.55,0.55,0.55h11.54
						c0.3,0,0.55-0.25,0.55-0.55V846.32z"/>
					<path class="st1" d="M844.56,843.05h2.71v18.07h-2.71V843.05z"/>
					<path class="st1" d="M867.42,843.05c1.81,0,3.26,1.46,3.26,3.26v14.81h-2.71v-6.32h-12.65v6.32h-2.71v-14.81
						c0-1.81,1.46-3.26,3.26-3.26H867.42z M867.98,852.09v-5.77c0-0.3-0.25-0.55-0.55-0.55h-11.54c-0.3,0-0.55,0.25-0.55,0.55v5.77
						H867.98z"/>
					<path class="st1" d="M893.3,843.05h3.24v18.07h-2.71v-14.45l-7.53,8.96l-7.53-8.96v14.45h-2.71v-18.07h3.21l7.03,8.36
						L893.3,843.05z"/>
					<path class="st1" d="M929.78,853.82v4.04c0,1.81-1.46,3.26-3.26,3.26h-14.81v-18.07h14.05c1.81,0,3.26,1.46,3.26,3.26V850
						c0,0.5-0.13,0.98-0.33,1.41C929.36,851.99,929.78,852.86,929.78,853.82z M914.98,845.76c-0.3,0-0.55,0.25-0.55,0.55V850
						c0,0.3,0.25,0.55,0.55,0.55h10.79c0.3,0,0.55-0.25,0.55-0.55v-3.69c0-0.3-0.25-0.55-0.55-0.55H914.98z M927.07,853.82
						c0-0.3-0.25-0.55-0.55-0.55h-11.54c-0.3,0-0.55,0.25-0.55,0.55v4.04c0,0.3,0.25,0.55,0.55,0.55h11.54
						c0.3,0,0.55-0.25,0.55-0.55V853.82z"/>
					<path class="st1" d="M949.78,843.05c1.81,0,3.26,1.46,3.26,3.26v11.54c0,1.81-1.46,3.26-3.26,3.26h-11.54
						c-1.81,0-3.26-1.46-3.26-3.26v-11.54c0-1.81,1.46-3.26,3.26-3.26H949.78z M949.78,858.41c0.3,0,0.55-0.25,0.55-0.55v-11.54
						c0-0.3-0.25-0.55-0.55-0.55h-11.54c-0.3,0-0.55,0.25-0.55,0.55v11.54c0,0.3,0.25,0.55,0.55,0.55H949.78z"/>
					<path class="st1" d="M973.62,843.05h2.71v14.81c0,1.81-1.46,3.26-3.26,3.26h-11.54c-1.81,0-3.26-1.46-3.26-3.26v-14.81h2.71
						v14.81c0,0.3,0.25,0.55,0.55,0.55h11.54c0.3,0,0.55-0.25,0.55-0.55V843.05z"/>
					<path class="st1" d="M996.96,843.05h2.71v18.07h-3.21l-12.15-14.45v14.45h-2.71v-18.07h3.21l12.15,14.45V843.05z"/>
					<path class="st1" d="M1019.85,843.05c1.81,0,3.26,1.46,3.26,3.26v11.54c0,1.81-1.46,3.26-3.26,3.26h-14.81v-18.07H1019.85z
						 M1020.4,846.32c0-0.3-0.25-0.55-0.55-0.55h-11.54c-0.3,0-0.55,0.25-0.55,0.55v11.54c0,0.3,0.25,0.55,0.55,0.55h11.54
						c0.3,0,0.55-0.25,0.55-0.55V846.32z"/>
					<path class="st1" d="M1043.29,843.05c1.81,0,3.26,1.46,3.26,3.26v14.81h-2.71v-6.32h-12.65v6.32h-2.71v-14.81
						c0-1.81,1.45-3.26,3.26-3.26H1043.29z M1043.84,852.09v-5.77c0-0.3-0.25-0.55-0.55-0.55h-11.54c-0.3,0-0.55,0.25-0.55,0.55
						v5.77H1043.84z"/>
					<path class="st1" d="M1069.96,851.41c0,1.78-1.45,3.26-3.26,3.26h-1.83l5.09,6.07v0.38h-3.21l-5.42-6.45h-6.17
						c-0.2,0-0.38-0.03-0.55-0.05v6.5h-2.71v-18.04h14.81c1.81,0,3.26,1.48,3.26,3.26V851.41z M1066.7,851.96
						c0.3,0,0.55-0.25,0.55-0.55v-5.07c0-0.3-0.25-0.55-0.55-0.55h-11.54c-0.3,0-0.55,0.25-0.55,0.55v5.07
						c0,0.3,0.25,0.55,0.55,0.55H1066.7z"/>
					<path class="st1" d="M1093.53,843.05l-8.33,11.29v6.78h-2.71v-6.78l-8.33-11.29h3.19l6.5,8.23l6.47-8.23H1093.53z"/>
					<path class="st1" d="M1125.6,847.37h-2.71v-1.05c0-0.3-0.25-0.55-0.55-0.55h-11.54c-0.3,0-0.55,0.25-0.55,0.55v3.86
						c0,0.3,0.25,0.55,0.55,0.55h11.54c1.81,0,3.26,1.46,3.26,3.26v3.86c0,1.81-1.45,3.26-3.26,3.26h-11.54
						c-1.81,0-3.26-1.46-3.26-3.26v-1.05h2.71v1.05c0,0.3,0.25,0.55,0.55,0.55h11.54c0.3,0,0.55-0.25,0.55-0.55v-3.86
						c0-0.3-0.25-0.55-0.55-0.55h-11.54c-1.81,0-3.26-1.46-3.26-3.26v-3.86c0-1.81,1.46-3.26,3.26-3.26h11.54
						c1.81,0,3.26,1.46,3.26,3.26V847.37z"/>
					<path class="st1" d="M1134.06,845.76c-0.3,0-0.55,0.25-0.55,0.55v11.54c0,0.3,0.25,0.55,0.55,0.55h14.76v2.71h-14.76
						c-1.81,0-3.26-1.46-3.26-3.26v-11.54c0-1.81,1.46-3.26,3.26-3.26h14.76v2.71H1134.06z"/>
					<path class="st1" d="M1168.69,843.05c1.81,0,3.26,1.46,3.26,3.26v11.54c0,1.81-1.46,3.26-3.26,3.26h-11.54
						c-1.81,0-3.26-1.46-3.26-3.26v-11.54c0-1.81,1.46-3.26,3.26-3.26H1168.69z M1168.69,858.41c0.3,0,0.55-0.25,0.55-0.55v-11.54
						c0-0.3-0.25-0.55-0.55-0.55h-11.54c-0.3,0-0.55,0.25-0.55,0.55v11.54c0,0.3,0.25,0.55,0.55,0.55H1168.69z"/>
					<path class="st1" d="M1192.02,843.08c1.81,0,3.26,1.48,3.26,3.26v5.07c0,1.78-1.46,3.26-3.26,3.26h-11.54
						c-0.2,0-0.38-0.03-0.55-0.05v6.5h-2.71v-18.04H1192.02z M1192.58,846.34c0-0.3-0.25-0.55-0.55-0.55h-11.54
						c-0.3,0-0.55,0.25-0.55,0.55v5.07c0,0.3,0.25,0.55,0.55,0.55h11.54c0.3,0,0.55-0.25,0.55-0.55V846.34z"/>
					<path class="st1" d="M1216.19,845.76h-13.85v4.97h11.14v2.71h-11.14v4.97h13.85v2.71h-16.56v-18.07h16.56V845.76z"/>
				</g>
			</g>
			<g>
				<g>
					<g>
						<path class="st1" d="M783.53,733.25h-16.1v-6.66c0-0.48-0.36-0.85-0.73-0.85H713.2c-0.48,0-0.85,0.36-0.85,0.85v17.92
							c0,0.48,0.36,0.85,0.85,0.85h53.51c9.2,0,16.83,7.51,16.83,16.83v17.92c0,9.32-7.63,16.83-16.83,16.83H713.2
							c-9.32,0-16.83-7.51-16.83-16.83v-6.66h15.98v6.66c0,0.48,0.36,0.85,0.85,0.85h53.51c0.36,0,0.73-0.36,0.73-0.85v-17.92
							c0-0.48-0.36-0.85-0.73-0.85H713.2c-9.32,0-16.83-7.51-16.83-16.83V726.6c0-9.32,7.5-16.83,16.83-16.83h53.51
							c9.2,0,16.83,7.51,16.83,16.83V733.25z"/>
						<path class="st1" d="M869.71,726.72v4.12l-28.08,30.99l28.08,30.99v4.12h-17.07l-25.06-27.12h-12.47v27.12h-15.86v-93.21
							h15.86v50.12h12.47l25.06-27.12H869.71z"/>
						<path class="st1" d="M933.75,824.77h-42.97v-15.98h42.97c0.36,0,0.73-0.24,0.73-0.73v-11.14h-38.74
							c-9.2,0-16.71-7.51-16.71-16.71v-53.26h15.86v53.26c0,0.48,0.36,0.85,0.85,0.85h38.01c0.36,0,0.73-0.36,0.73-0.85v-53.26
							h15.86v81.11C950.33,817.27,942.95,824.77,933.75,824.77z"/>
						<path class="st1" d="M1047.05,725.75h-64.04v19.61h51.57v15.98h-51.57v19.61h64.04v15.98h-80.14v-87.16h80.14V725.75z"/>
						<path class="st1" d="M1115.44,824.77h-42.97v-15.98h42.97c0.36,0,0.73-0.24,0.73-0.73v-11.14h-38.74
							c-9.2,0-16.71-7.51-16.71-16.71v-53.26h15.86v53.26c0,0.48,0.36,0.85,0.85,0.85h38.01c0.36,0,0.73-0.36,0.73-0.85v-53.26
							h15.86v81.11C1132.02,817.27,1124.64,824.77,1115.44,824.77z"/>
						<path class="st1" d="M1216.03,743.42v26.39h-55.44v10.41c0,0.48,0.36,0.85,0.85,0.85h54.59v15.86h-54.59
							c-9.2,0-16.71-7.51-16.71-16.71v-36.8c0-9.2,7.51-16.71,16.71-16.71h37.89C1208.52,726.72,1216.03,734.22,1216.03,743.42z
							 M1200.17,753.83v-10.41c0-0.48-0.36-0.85-0.85-0.85h-37.89c-0.48,0-0.85,0.36-0.85,0.85v10.41H1200.17z"/>
					</g>
				</g>
				<rect x="696.37" y="808.79" class="st1" width="173.53" height="15.98"/>
				<rect x="966.91" y="808.79" class="st1" width="80.14" height="15.98"/>
				<rect x="1144.73" y="808.79" class="st1" width="71.46" height="15.98"/>
			</g>
		</g>
	</g>
</g>
</svg>
