<?xml version="1.0" encoding="utf-8"?>
<!-- Generator: Adobe Illustrator 24.3.0, SVG Export Plug-In . SVG Version: 6.00 Build 0)  -->
<svg version="1.1" id="Layer_1" xmlns="http://www.w3.org/2000/svg" xmlns:xlink="http://www.w3.org/1999/xlink" x="0px" y="0px"
	 viewBox="0 0 1500 1500" style="enable-background:new 0 0 1500 1500;" xml:space="preserve">
<style type="text/css">
	.st0{fill:#FDFDFD;}
	.st1{fill:#5271FF;}
	.st2{fill:#FFFFFF;}
</style>
<rect class="st1" width="1500" height="1500"/>
<g>
	<path class="st0" d="M1149.19,731.41c-33.42-40.21-78.05-60.24-130.68-61.43c-5.12-0.12-10.27-0.14-15.39-0.26
		c-0.55,0-1.08-0.33-2.26-0.7c-32.6-120.52-142.72-193.58-252.78-193.03c-89.88,0.45-181.33,50.49-228.15,137.86
		c19.92,9.56,40.65,18.24,60.84,26.65c0.67-1.2,1.35-2.4,2.06-3.58c3.07-5.19,6.39-10.21,9.99-15.1
		c11.33-15.39,25.35-29.32,42.21-41.72c51.93-38.13,109.89-47.65,171.46-29.07c51.98,15.7,91.09,48.54,115.14,97.25
		c26.26,53.18,28.01,105.34,8.26,156.07c-3.22,8.3-7.03,16.54-11.38,24.77c-0.22,0.41-0.45,0.84-0.69,1.27
		c-2.81,5.24-5.86,10.45-9.14,15.66c7.87,1.15,17.41-0.19,27.39-3.8c7.66-2.81,15.58-6.96,23.21-12.39
		c31.81-22.69,47.8-54.28,49.98-93.89c3.36,0,6.14-0.14,8.89,0.02c42.47,2.26,74.93,21.56,94.85,59.11
		c20.1,37.93,18.13,76.3-5.21,112.21c-22.4,34.5-55.46,50.29-96.56,50.22c-99.66-0.17-199.34-0.03-299-0.03
		c-75.96,0-151.92,0.17-227.89-0.1c-59.35-0.22-105.4-42.66-111.35-101.92c-2.85-28.36,6.39-56.18,23.87-77.76
		c-9.73-22.59-16.64-46.5-20.69-71.61c-30.59,23.41-53.61,56.75-63.67,95.07c-18.06,68.74,6.44,141.67,61.85,184.81
		c32.03,24.92,68.33,37.69,108.73,37.72c177.06,0.21,354.11,0.69,531.15-0.22c73.77-0.36,129.36-34.84,160.71-101.53
		C1206.74,854.23,1196.95,788.93,1149.19,731.41z"/>
	<g>
		<path class="st0" d="M860.17,745.7c-4.88-10.15-9.76-20.3-14.64-30.46c-1-2.08-2-4.17-3.13-6.54
			c25.82,8.44,71.65,75.49,74.43,108.76c-55.36-27.35-114.12-43.75-173.74-57.72c-11.49,56.69-68.65,72.17-100.66,57.62
			c8.45-6.86,12.89-15.44,11.36-26.36c-1-7.16-4.59-12.97-10.27-17.39c-10-7.79-28.94-9.43-40.81,9.82
			c-9.19-16.28-10.82-33.27-7.94-51.53c-11.06-1.67-21.85-3.33-32.66-4.92c-27.31-4.02-54.73-7.54-81.13-16.11
			c-16.99-5.52-33.03-12.9-46.66-24.76c-19.61-17.05-29.16-39.35-32.7-64.45c-1.63-11.6-1.94-23.38-2.23-35.28
			c15.71,41.25,46.35,65.82,86.75,79.86c-51.85-33.19-76.14-81.98-80.43-142.22c0.33,0.39,0.8,0.73,0.98,1.18
			c19.48,46.48,52.78,80.29,97.23,102.74c26.27,13.27,53.63,24.45,80.82,35.81c28.37,11.85,57.01,23.04,84.13,37.66
			c0.39,0.21,0.85,0.28,2.59,0.83c-18.32-20.97-38.88-37.75-58.83-55.36c35.08,7.32,68.36,19.69,100.51,35.28
			c32.06,15.54,62.34,34.12,91.89,54.13C790.99,711.5,772,690.68,752.6,670.1c15.15,5.52,29.3,12.79,42.78,21.38
			c22.37,14.25,42.24,31.47,60.4,50.72c1.27,1.35,2.73,2.52,4.1,3.77c-0.05,0.45-0.1,0.91-0.15,1.37c0.34-0.34,0.68-0.69,1.02-1.03
			C860.56,746.11,860.36,745.9,860.17,745.7z"/>
		<path class="st0" d="M530.49,866.32c0.8,1.46,1.42,3.06,2.43,4.36c20.85,27.08,49,42.5,81.68,50.17
			c10.79,2.53,21.96,3.44,32.96,5.07c1.65,0.24,3.31,0.39,4.94,0.94c-16.8,3.8-33.76,4.69-50.79,3.06
			c-53.01-5.07-96.24-29.83-132.36-67.62c-43.47-45.48-69.62-99.6-77.86-162.13c-0.81-6.16-1.05-12.39-0.73-18.74
			c2.36,6.73,4.56,13.52,7.12,20.18c14,36.45,35.62,67.17,67.94,89.77c1.37,0.96,2.94,1.63,4.42,2.43c0.23,0.47,0.46,0.93,0.68,1.39
			c0.05-0.02,0.11-0.03,0.17-0.05c-0.09-0.02-0.18-0.03-0.28-0.05c-0.22-0.4-0.44-0.81-0.66-1.21c-3.39-3.84-6.77-7.68-10.18-11.5
			c-17.26-19.39-29.78-41.39-36.82-67.03c8.66,4.81,16.7,9.77,25.16,13.83c8.46,4.06,17.35,7.22,25.5,10.54
			c6.11,11.25,11.07,22.96,18.22,33.13c44.89,63.91,106.15,97.11,184.8,95.16c32.97-0.82,62.39-12.98,87.89-34.15
			c0.85-0.7,1.68-1.41,2.55-2.08c0.23-0.18,0.56-0.22,0.85-0.32c0.59,6.11-2.29,11.76-15.35,29.75c6.77-2.47,12.72-4.24,18.33-6.78
			c8.99-4.07,17.87-8.42,26.6-13.03c33.76-17.81,67.73-18.63,101.99-1.58c2.52,1.25,4.86,2.86,7.26,4.34
			c0.77,0.47,1.45,1.07,2.56,1.9c-7.11,0-13.76-0.55-20.28,0.11c-14.54,1.49-27.97,6.95-41.05,13.12
			c-18.01,8.5-35.57,18.02-53.87,25.83c-33.47,14.29-68.75,21.62-104.95,24.54c-30.85,2.49-61.47,1.32-91.58-6.61
			c-24.52-6.46-46.73-17.24-65.12-35.1c-0.65-0.63-1.49-1.05-2.24-1.57c-0.32-0.31-0.65-0.62-0.97-0.93
			c-0.11-0.18-0.22-0.37-0.19-0.33c-0.04-0.03,0.13,0.1,0.29,0.23C529.85,865.69,530.17,866.01,530.49,866.32z"/>
	</g>
</g>
</svg>
